0
SECTION
2
HEADER
9
$INSUNITS
70
4
9
$ACADVER
1
AC1014
9
$HANDSEED
5
FFFF
0
ENDSEC
0
SECTION
2
TABLES
0
TABLE
2
VPORT
5
8
100
AcDbSymbolTable
0
ENDTAB
0
TABLE
2
LTYPE
5
5
100
AcDbSymbolTable
0
LTYPE
5
14
100
AcDbSymbolTableRecord
100
AcDbLinetypeTableRecord
2
BYBLOCK
70
0
0
LTYPE
5
15
100
AcDbSymbolTableRecord
100
AcDbLinetypeTableRecord
2
BYLAYER
70
0
0
ENDTAB
0
TABLE
2
LAYER
5
2
100
AcDbSymbolTable
70
2
0
LAYER
5
50
100
AcDbSymbolTableRecord
100
AcDbLayerTableRecord
2
0
70
0
6
CONTINUOUS
0
ENDTAB
0
TABLE
2
STYLE
5
3
100
AcDbSymbolTable
70
1
0
STYLE
5
11
100
AcDbSymbolTableRecord
100
AcDbTextStyleTableRecord
2
STANDARD
70
0
0
ENDTAB
0
TABLE
2
VIEW
5
6
100
AcDbSymbolTable
70
0
0
ENDTAB
0
TABLE
2
UCS
5
7
100
AcDbSymbolTable
70
0
0
ENDTAB
0
TABLE
2
APPID
5
9
100
AcDbSymbolTable
70
2
0
APPID
5
12
100
AcDbSymbolTableRecord
100
AcDbRegAppTableRecord
2
ACAD
70
0
0
ENDTAB
0
TABLE
2
DIMSTYLE
5
A
100
AcDbSymbolTable
70
1
0
ENDTAB
0
TABLE
2
BLOCK_RECORD
5
1
100
AcDbSymbolTable
70
1
0
BLOCK_RECORD
5
1F
100
AcDbSymbolTableRecord
100
AcDbBlockTableRecord
2
*MODEL_SPACE
0
BLOCK_RECORD
5
1B
100
AcDbSymbolTableRecord
100
AcDbBlockTableRecord
2
*PAPER_SPACE
0
ENDTAB
0
ENDSEC
0
SECTION
2
BLOCKS
0
BLOCK
5
20
100
AcDbEntity
100
AcDbBlockBegin
2
*MODEL_SPACE
0
ENDBLK
5
21
100
AcDbEntity
100
AcDbBlockEnd
0
BLOCK
5
1C
100
AcDbEntity
100
AcDbBlockBegin
2
*PAPER_SPACE
0
ENDBLK
5
1D
100
AcDbEntity
100
AcDbBlockEnd
0
ENDSEC
0
SECTION
2
ENTITIES
0
LINE
5
100
100
AcDbEntity
8
0
100
AcDbLine
10
0
20
0
30
0
11
59.999999999999993
21
0
31
0
0
LINE
5
101
100
AcDbEntity
8
0
100
AcDbLine
10
59.999999999999993
20
0
30
0
11
59.999999999999993
21
-30
31
0
0
LINE
5
102
100
AcDbEntity
8
0
100
AcDbLine
10
59.999999999999993
20
-30
30
0
11
0
21
-30
31
0
0
LINE
5
103
100
AcDbEntity
8
0
100
AcDbLine
10
0
20
-30
30
0
11
0
21
0
31
0
0
LINE
5
104
100
AcDbEntity
8
0
100
AcDbLine
10
0
20
0
30
0
11
3.360478588844884
21
19.042712003454294
31
0
0
LINE
5
105
100
AcDbEntity
8
0
100
AcDbLine
10
9.2691799417525029
20
24.000000000000004
30
0
11
50.730820058247573
21
24.000000000000021
31
0
0
LINE
5
106
100
AcDbEntity
8
0
100
AcDbLine
10
56.639521411155215
20
19.042712003454284
30
0
11
59.999999999999993
21
0
31
0
0
CIRCLE
5
107
100
AcDbEntity
8
0
100
AcDbCircle
10
10.000000000000009
20
17
30
0
40
3.1000000000000005
210
0
220
0
230
1
0
CIRCLE
5
108
100
AcDbEntity
8
0
100
AcDbCircle
10
50.000000000000007
20
17
30
0
40
3.1000000000000005
210
0
220
0
230
1
0
LINE
5
109
100
AcDbEntity
8
0
100
AcDbLine
10
10.000000000000009
20
17
30
0
11
50.000000000000007
21
17
31
0
0
LINE
5
110
100
AcDbEntity
8
0
100
AcDbLine
10
30.000000000000007
20
17
30
0
11
29.999999999999996
21
0
31
0
0
LINE
5
111
100
AcDbEntity
8
0
100
AcDbLine
10
10.000000000000009
20
17
30
0
11
3.000000000000008
21
17
31
0
0
ARC
5
112
100
AcDbEntity
8
0
100
AcDbCircle
10
9.2691799417524994
20
18.000000000000007
30
0
40
5.9999999999999964
210
0
220
-0
230
1
100
AcDbArc
50
89.999999999999972
51
169.99202019855863
0
ARC
5
113
100
AcDbEntity
8
0
100
AcDbCircle
10
50.730820058247559
20
17.999999999999993
30
0
40
6.0000000000000302
210
0
220
-0
230
1
100
AcDbArc
50
10.007979801441277
51
89.999999999999872
0
LINE
5
114
100
AcDbEntity
8
0
100
AcDbLine
10
59.999999999999993
20
0
30
0
11
89
21
0
31
0
0
LINE
5
115
100
AcDbEntity
8
0
100
AcDbLine
10
93
20
-4
30
0
11
93
21
-6.0000000000000018
31
0
0
LINE
5
116
100
AcDbEntity
8
0
100
AcDbLine
10
89
20
-10.000000000000002
30
0
11
74
21
-10.000000000000002
31
0
0
LINE
5
117
100
AcDbEntity
8
0
100
AcDbLine
10
69.999999999999986
20
-14.000000000000004
30
0
11
69.999999999999986
21
-15.000000000000002
31
0
0
LINE
5
118
100
AcDbEntity
8
0
100
AcDbLine
10
59.999999999999993
20
-15
30
0
11
103.63872207185005
21
-15
31
0
0
ARC
5
119
100
AcDbEntity
8
0
100
AcDbCircle
10
89
20
-4
30
0
40
4.0000000000000036
210
-0
220
0
230
1
100
AcDbArc
50
0
51
90
0
ARC
5
120
100
AcDbEntity
8
0
100
AcDbCircle
10
89
20
-6.0000000000000018
30
0
40
4
210
-0
220
0
230
1
100
AcDbArc
50
-90
51
0
0
ARC
5
121
100
AcDbEntity
8
0
100
AcDbCircle
10
73.999999999999986
20
-14.000000000000002
30
0
40
3.9999999999999991
210
0
220
-0
230
1
100
AcDbArc
50
89.999999999999801
51
180
0
LINE
5
122
100
AcDbEntity
8
0
100
AcDbLine
10
59.999999999999993
20
-30
30
0
11
89
21
-30
31
0
0
ARC
5
123
100
AcDbEntity
8
0
100
AcDbCircle
10
89
20
-26
30
0
40
3.9999999999999991
210
-0
220
0
230
1
100
AcDbArc
50
-90
51
0
0
LINE
5
124
100
AcDbEntity
8
0
100
AcDbLine
10
93
20
-26
30
0
11
93
21
-24
31
0
0
ARC
5
125
100
AcDbEntity
8
0
100
AcDbCircle
10
89
20
-24
30
0
40
4.0000000000000036
210
-0
220
0
230
1
100
AcDbArc
50
0
51
90
0
LINE
5
126
100
AcDbEntity
8
0
100
AcDbLine
10
89
20
-19.999999999999996
30
0
11
74
21
-19.999999999999996
31
0
0
ARC
5
127
100
AcDbEntity
8
0
100
AcDbCircle
10
73.999999999999986
20
-15.999999999999998
30
0
40
4.0000000000000036
210
0
220
0
230
1
100
AcDbArc
50
180
51
270.00000000000023
0
LINE
5
128
100
AcDbEntity
8
0
100
AcDbLine
10
69.999999999999986
20
-15.999999999999996
30
0
11
69.999999999999986
21
-14.999999999999998
31
0
0
LINE
5
129
100
AcDbEntity
8
0
100
AcDbLine
10
0
20
-30
30
0
11
3.3604785888448863
21
-49.042712003454298
31
0
0
ARC
5
130
100
AcDbEntity
8
0
100
AcDbCircle
10
9.2691799417525012
20
-48.000000000000007
30
0
40
5.9999999999999947
210
0
220
0
230
1
100
AcDbArc
50
190.00797980144134
51
270
0
LINE
5
131
100
AcDbEntity
8
0
100
AcDbLine
10
9.2691799417525012
20
-54
30
0
11
50.730820058247573
21
-54.000000000000021
31
0
0
ARC
5
132
100
AcDbEntity
8
0
100
AcDbCircle
10
50.730820058247559
20
-47.999999999999986
30
0
40
6.000000000000032
210
-0
220
0
230
1
100
AcDbArc
50
270.00000000000011
51
349.99202019855863
0
LINE
5
133
100
AcDbEntity
8
0
100
AcDbLine
10
56.639521411155215
20
-49.042712003454284
30
0
11
59.999999999999993
21
-30
31
0
0
CIRCLE
5
134
100
AcDbEntity
8
0
100
AcDbCircle
10
10.000000000000009
20
-47
30
0
40
3.1000000000000005
210
0
220
0
230
1
0
CIRCLE
5
135
100
AcDbEntity
8
0
100
AcDbCircle
10
50.000000000000007
20
-47
30
0
40
3.1000000000000005
210
0
220
0
230
1
0
LINE
5
136
100
AcDbEntity
8
0
100
AcDbLine
10
0
20
4.6629367034256575e-14
30
0
11
-29.000000000000004
21
9.3258734068513149e-14
31
0
0
ARC
5
137
100
AcDbEntity
8
0
100
AcDbCircle
10
-29.000000000000021
20
-3.9999999999999059
30
0
40
3.9999999999999991
210
-0
220
0
230
1
100
AcDbArc
50
89.999999999999744
51
180
0
LINE
5
138
100
AcDbEntity
8
0
100
AcDbLine
10
-33.000000000000028
20
-3.9999999999999014
30
0
11
-33.000000000000028
21
-5.9999999999999032
31
0
0
ARC
5
139
100
AcDbEntity
8
0
100
AcDbCircle
10
-29.000000000000021
20
-5.9999999999999076
30
0
40
4.0000000000000036
210
0
220
0
230
1
100
AcDbArc
50
180
51
270
0
LINE
5
140
100
AcDbEntity
8
0
100
AcDbLine
10
-29.000000000000021
20
-9.9999999999999076
30
0
11
-14.000000000000012
21
-9.9999999999999289
31
0
0
ARC
5
141
100
AcDbEntity
8
0
100
AcDbCircle
10
-14.000000000000021
20
-13.999999999999932
30
0
40
4.0000000000000124
210
-0
220
0
230
1
100
AcDbArc
50
0
51
89.999999999999872
0
LINE
5
142
100
AcDbEntity
8
0
100
AcDbLine
10
-10.000000000000009
20
-13.999999999999941
30
0
11
-10.000000000000027
21
-14.999999999999938
31
0
0
LINE
5
143
100
AcDbEntity
8
0
100
AcDbLine
10
-4.4408920985006262e-14
20
-29.999999999999957
30
0
11
-29.000000000000057
21
-29.999999999999911
31
0
0
ARC
5
144
100
AcDbEntity
8
0
100
AcDbCircle
10
-29.000000000000057
20
-25.999999999999915
30
0
40
4.0000000000000036
210
0
220
0
230
1
100
AcDbArc
50
180
51
270
0
LINE
5
145
100
AcDbEntity
8
0
100
AcDbLine
10
-33.000000000000057
20
-25.999999999999908
30
0
11
-33.000000000000057
21
-23.999999999999897
31
0
0
ARC
5
146
100
AcDbEntity
8
0
100
AcDbCircle
10
-29.000000000000057
20
-23.999999999999908
30
0
40
3.9999999999999991
210
-0
220
0
230
1
100
AcDbArc
50
89.999999999999744
51
180
0
ARC
5
147
100
AcDbEntity
8
0
100
AcDbCircle
10
-14.000000000000021
20
-15.999999999999925
30
0
40
4.0000000000000036
210
0
220
0
230
1
100
AcDbArc
50
269.99999999999989
51
360
0
LINE
5
148
100
AcDbEntity
8
0
100
AcDbLine
10
-10.000000000000018
20
-15.999999999999934
30
0
11
-10.000000000000027
21
-14.999999999999938
31
0
0
LINE
5
149
100
AcDbEntity
8
0
100
AcDbLine
10
-29.000000000000039
20
-19.999999999999908
30
0
11
-14.00000000000003
21
-19.999999999999929
31
0
0
ENDSEC
0
SECTION
2
OBJECTS
0
DICTIONARY
5
C
100
AcDbDictionary
3
ACAD_GROUP
350
D
3
ACAD_MLINESTYLE
350
17
0
DICTIONARY
5
D
100
AcDbDictionary
0
DICTIONARY
5
1A
330
C
100
AcDbDictionary
0
DICTIONARY
5
17
100
AcDbDictionary
0
ENDSEC
0
EOF
