0
SECTION
2
HEADER
9
$INSUNITS
70
4
9
$ACADVER
1
AC1014
9
$HANDSEED
5
FFFF
0
ENDSEC
0
SECTION
2
TABLES
0
TABLE
2
VPORT
5
8
100
AcDbSymbolTable
0
ENDTAB
0
TABLE
2
LTYPE
5
5
100
AcDbSymbolTable
0
LTYPE
5
14
100
AcDbSymbolTableRecord
100
AcDbLinetypeTableRecord
2
BYBLOCK
70
0
0
LTYPE
5
15
100
AcDbSymbolTableRecord
100
AcDbLinetypeTableRecord
2
BYLAYER
70
0
0
ENDTAB
0
TABLE
2
LAYER
5
2
100
AcDbSymbolTable
70
2
0
LAYER
5
50
100
AcDbSymbolTableRecord
100
AcDbLayerTableRecord
2
0
70
0
6
CONTINUOUS
0
ENDTAB
0
TABLE
2
STYLE
5
3
100
AcDbSymbolTable
70
1
0
STYLE
5
11
100
AcDbSymbolTableRecord
100
AcDbTextStyleTableRecord
2
STANDARD
70
0
0
ENDTAB
0
TABLE
2
VIEW
5
6
100
AcDbSymbolTable
70
0
0
ENDTAB
0
TABLE
2
UCS
5
7
100
AcDbSymbolTable
70
0
0
ENDTAB
0
TABLE
2
APPID
5
9
100
AcDbSymbolTable
70
2
0
APPID
5
12
100
AcDbSymbolTableRecord
100
AcDbRegAppTableRecord
2
ACAD
70
0
0
ENDTAB
0
TABLE
2
DIMSTYLE
5
A
100
AcDbSymbolTable
70
1
0
ENDTAB
0
TABLE
2
BLOCK_RECORD
5
1
100
AcDbSymbolTable
70
1
0
BLOCK_RECORD
5
1F
100
AcDbSymbolTableRecord
100
AcDbBlockTableRecord
2
*MODEL_SPACE
0
BLOCK_RECORD
5
1B
100
AcDbSymbolTableRecord
100
AcDbBlockTableRecord
2
*PAPER_SPACE
0
ENDTAB
0
ENDSEC
0
SECTION
2
BLOCKS
0
BLOCK
5
20
100
AcDbEntity
100
AcDbBlockBegin
2
*MODEL_SPACE
0
ENDBLK
5
21
100
AcDbEntity
100
AcDbBlockEnd
0
BLOCK
5
1C
100
AcDbEntity
100
AcDbBlockBegin
2
*PAPER_SPACE
0
ENDBLK
5
1D
100
AcDbEntity
100
AcDbBlockEnd
0
ENDSEC
0
SECTION
2
ENTITIES
0
LINE
5
100
100
AcDbEntity
8
0
100
AcDbLine
10
0
20
0
30
0
11
90
21
0
31
0
0
LINE
5
101
100
AcDbEntity
8
0
100
AcDbLine
10
90
20
0
30
0
11
90
21
-30
31
0
0
LINE
5
102
100
AcDbEntity
8
0
100
AcDbLine
10
90
20
-30
30
0
11
0
21
-30
31
0
0
LINE
5
103
100
AcDbEntity
8
0
100
AcDbLine
10
0
20
-30
30
0
11
0
21
0
31
0
0
LINE
5
104
100
AcDbEntity
8
0
100
AcDbLine
10
0
20
0
30
0
11
17.610689004591261
21
21.773215496585934
31
0
0
LINE
5
105
100
AcDbEntity
8
0
100
AcDbLine
10
22.27575543673732
20
24.000000000000004
30
0
11
67.724244468561366
21
24.000000000000099
31
0
0
LINE
5
106
100
AcDbEntity
8
0
100
AcDbLine
10
72.389310963523272
20
21.773215470796213
30
0
11
90
21
0
31
0
0
CIRCLE
5
107
100
AcDbEntity
8
0
100
AcDbCircle
10
25.000000000000007
20
17
30
0
40
3.1000000000000005
210
0
220
0
230
1
0
CIRCLE
5
108
100
AcDbEntity
8
0
100
AcDbCircle
10
65.000000000000014
20
17
30
0
40
3.1000000000000005
210
0
220
0
230
1
0
LINE
5
109
100
AcDbEntity
8
0
100
AcDbLine
10
25.000000000000007
20
17
30
0
11
65.000000000000014
21
17
31
0
0
LINE
5
110
100
AcDbEntity
8
0
100
AcDbLine
10
45.000000000000014
20
16.999999999999993
30
0
11
45
21
-6.9333477997940491e-32
31
0
0
LINE
5
111
100
AcDbEntity
8
0
100
AcDbLine
10
25.000000000000007
20
17
30
0
11
13.750000000000009
21
17.000000000000284
31
0
0
ARC
5
112
100
AcDbEntity
8
0
100
AcDbCircle
10
22.275755436737327
20
17.999999999997268
30
0
40
6.0000000000027365
210
0
220
0
230
1
100
AcDbArc
50
90.000000000000071
51
141.03325300620119
0
ARC
5
113
100
AcDbEntity
8
0
100
AcDbCircle
10
67.724244468561409
20
17.999999912099678
30
0
40
6.0000000879004478
210
-0
220
0
230
1
100
AcDbArc
50
38.96674707770498
51
90.000000000000398
0
LINE
5
114
100
AcDbEntity
8
0
100
AcDbLine
10
90
20
0
30
0
11
118.99999999999994
21
-6.3948227237767693e-14
31
0
0
LINE
5
115
100
AcDbEntity
8
0
100
AcDbLine
10
123.00000000000003
20
-4.0000000000000711
30
0
11
123.00000000000004
21
-5.9999999999999796
31
0
0
LINE
5
116
100
AcDbEntity
8
0
100
AcDbLine
10
119.00000000000004
20
-9.9999999999999805
30
0
11
98.999999999963975
21
-9.9999999999999947
31
0
0
LINE
5
117
100
AcDbEntity
8
0
100
AcDbLine
10
94.999999999993889
20
-13.999999999999167
30
0
11
94.999999999948287
21
-15.000000000000002
31
0
0
LINE
5
118
100
AcDbEntity
8
0
100
AcDbLine
10
90
20
-15
30
0
11
103.63872207185005
21
-15.000000000000002
31
0
0
ARC
5
119
100
AcDbEntity
8
0
100
AcDbCircle
10
118.99999999999997
20
-4.0000000000000711
30
0
40
4.0000000000000568
210
-0
220
0
230
1
100
AcDbArc
50
0
51
90.000000000000398
0
ARC
5
120
100
AcDbEntity
8
0
100
AcDbCircle
10
119.00000000000004
20
-5.9999999999999796
30
0
40
4.0000000000000018
210
-0
220
0
230
1
100
AcDbArc
50
-90
51
0
0
ARC
5
121
100
AcDbEntity
8
0
100
AcDbCircle
10
98.99999999996399
20
-13.999999999999167
30
0
40
3.9999999999991722
210
0
220
0
230
1
100
AcDbArc
50
90.000000000000199
51
180
0
LINE
5
122
100
AcDbEntity
8
0
100
AcDbLine
10
90
20
-30.000000000000014
30
0
11
119
21
-29.999999999999947
31
0
0
ARC
5
123
100
AcDbEntity
8
0
100
AcDbCircle
10
119
20
-26.00000000000016
30
0
40
3.9999999999997859
210
-0
220
0
230
1
100
AcDbArc
50
-90
51
0
0
LINE
5
124
100
AcDbEntity
8
0
100
AcDbLine
10
123.00000000000006
20
-25.99999999999994
30
0
11
123.00000000000004
21
-24.000000000000025
31
0
0
ARC
5
125
100
AcDbEntity
8
0
100
AcDbCircle
10
119.00000000000004
20
-24.000000000000028
30
0
40
4.0000000000000036
210
-0
220
0
230
1
100
AcDbArc
50
0
51
90
0
LINE
5
126
100
AcDbEntity
8
0
100
AcDbLine
10
119.00000000000004
20
-20.000000000000028
30
0
11
98.999999999988702
21
-20.000000000000014
31
0
0
ARC
5
127
100
AcDbEntity
8
0
100
AcDbCircle
10
98.999999999989399
20
-16.000000000000838
30
0
40
3.9999999999988844
210
0
220
0
230
1
100
AcDbArc
50
180
51
269.99999999999005
0
LINE
5
128
100
AcDbEntity
8
0
100
AcDbLine
10
94.999999999990507
20
-16.000000000000838
30
0
11
94.999999999954355
21
-15.000000000000002
31
0
0
LINE
5
129
100
AcDbEntity
8
0
100
AcDbLine
10
-2.8179772693464072e-15
20
-29.999999999999986
30
0
11
17.610689004594398
21
-51.773215496585919
31
0
0
ARC
5
130
100
AcDbEntity
8
0
100
AcDbCircle
10
22.275755436737342
20
-47.999999999997243
30
0
40
6.0000000000003171
210
0
220
0
230
1
100
AcDbArc
50
218.96674699381765
51
270.00000000000148
0
LINE
5
131
100
AcDbEntity
8
0
100
AcDbLine
10
22.275755436737498
20
-53.999999999999986
30
0
11
67.72424446856138
21
-54.000000000000092
31
0
0
ARC
5
132
100
AcDbEntity
8
0
100
AcDbCircle
10
67.724244468561295
20
-47.999999999939689
30
0
40
6.0000000000604015
210
0
220
0
230
1
100
AcDbArc
50
270.0000000000008
51
321.03325332268571
0
LINE
5
133
100
AcDbEntity
8
0
100
AcDbLine
10
72.389310921594316
20
-51.773215470796217
30
0
11
90
21
-30.000000000000004
31
0
0
CIRCLE
5
134
100
AcDbEntity
8
0
100
AcDbCircle
10
25.000000000000245
20
-46.999999999999858
30
0
40
3.1000000000000005
210
0
220
0
230
1
0
CIRCLE
5
135
100
AcDbEntity
8
0
100
AcDbCircle
10
64.999999999999915
20
-47.000000000000021
30
0
40
3.1000000000000005
210
0
220
0
230
1
0
LINE
5
136
100
AcDbEntity
8
0
100
AcDbLine
10
0
20
4.6629367034256575e-14
30
0
11
-29.000000000000004
21
9.3258734068513149e-14
31
0
0
ARC
5
137
100
AcDbEntity
8
0
100
AcDbCircle
10
-29.000000000000021
20
-3.9999999999999059
30
0
40
3.9999999999999991
210
-0
220
0
230
1
100
AcDbArc
50
89.999999999999744
51
180
0
LINE
5
138
100
AcDbEntity
8
0
100
AcDbLine
10
-23.999999999977739
20
-9.9999999999841656
30
0
11
-8.9999999999640181
21
-9.9999999999998828
31
0
0
ARC
5
139
100
AcDbEntity
8
0
100
AcDbCircle
10
-8.9999999999869509
20
-13.999999999992891
30
0
40
3.9999999999930118
210
-0
220
0
230
1
100
AcDbArc
50
0
51
89.999999999671502
0
LINE
5
140
100
AcDbEntity
8
0
100
AcDbLine
10
-4.9999999999939391
20
-13.999999999999062
30
0
11
-4.9999999999483205
21
-14.999999999999909
31
0
0
LINE
5
141
100
AcDbEntity
8
0
100
AcDbLine
10
-6.6874610424479919e-14
20
-29.999999999999915
30
0
11
-29.000000000000071
21
-29.999999999999865
31
0
0
ARC
5
142
100
AcDbEntity
8
0
100
AcDbCircle
10
-29.000000000000064
20
-25.999999999999869
30
0
40
4.0000000000000124
210
0
220
0
230
1
100
AcDbArc
50
180
51
269.99999999999989
0
LINE
5
143
100
AcDbEntity
8
0
100
AcDbLine
10
-33.000000000000078
20
-25.999999999999854
30
0
11
-33.000000000000028
21
-3.9999999999999014
31
0
0
ARC
5
144
100
AcDbEntity
8
0
100
AcDbCircle
10
-8.999999999997236
20
-16.000000000000728
30
0
40
3.9999999999991798
210
0
220
0
230
1
100
AcDbArc
50
270.00000000000591
51
360
0
LINE
5
145
100
AcDbEntity
8
0
100
AcDbLine
10
-4.9999999999980176
20
-16.000000000000746
30
0
11
-4.9999999999544853
21
-14.999999999999908
31
0
0
LINE
5
146
100
AcDbEntity
8
0
100
AcDbLine
10
-24.000000000002469
20
-19.999999999984151
30
0
11
-8.9999999999968257
21
-19.999999999999908
31
0
0
ARC
5
147
100
AcDbEntity
8
0
100
AcDbCircle
10
-23.999999999987821
20
-14.999999999989104
30
0
40
5.0000000000049383
210
0
220
-0
230
1
100
AcDbArc
50
89.99999999988448
51
180
0
ARC
5
148
100
AcDbEntity
8
0
100
AcDbCircle
10
-23.999999999997648
20
-14.99999999998356
30
0
40
4.9999999999962919
210
0
220
0
230
1
100
AcDbArc
50
180
51
269.99999999994475
0
ENDSEC
0
SECTION
2
OBJECTS
0
DICTIONARY
5
C
100
AcDbDictionary
3
ACAD_GROUP
350
D
3
ACAD_MLINESTYLE
350
17
0
DICTIONARY
5
D
100
AcDbDictionary
0
DICTIONARY
5
1A
330
C
100
AcDbDictionary
0
DICTIONARY
5
17
100
AcDbDictionary
0
ENDSEC
0
EOF
