0
SECTION
2
HEADER
9
$INSUNITS
70
4
9
$ACADVER
1
AC1014
9
$HANDSEED
5
FFFF
0
ENDSEC
0
SECTION
2
TABLES
0
TABLE
2
VPORT
5
8
100
AcDbSymbolTable
0
ENDTAB
0
TABLE
2
LTYPE
5
5
100
AcDbSymbolTable
0
LTYPE
5
14
100
AcDbSymbolTableRecord
100
AcDbLinetypeTableRecord
2
BYBLOCK
70
0
0
LTYPE
5
15
100
AcDbSymbolTableRecord
100
AcDbLinetypeTableRecord
2
BYLAYER
70
0
0
ENDTAB
0
TABLE
2
LAYER
5
2
100
AcDbSymbolTable
70
2
0
LAYER
5
50
100
AcDbSymbolTableRecord
100
AcDbLayerTableRecord
2
0
70
0
6
CONTINUOUS
0
ENDTAB
0
TABLE
2
STYLE
5
3
100
AcDbSymbolTable
70
1
0
STYLE
5
11
100
AcDbSymbolTableRecord
100
AcDbTextStyleTableRecord
2
STANDARD
70
0
0
ENDTAB
0
TABLE
2
VIEW
5
6
100
AcDbSymbolTable
70
0
0
ENDTAB
0
TABLE
2
UCS
5
7
100
AcDbSymbolTable
70
0
0
ENDTAB
0
TABLE
2
APPID
5
9
100
AcDbSymbolTable
70
2
0
APPID
5
12
100
AcDbSymbolTableRecord
100
AcDbRegAppTableRecord
2
ACAD
70
0
0
ENDTAB
0
TABLE
2
DIMSTYLE
5
A
100
AcDbSymbolTable
70
1
0
ENDTAB
0
TABLE
2
BLOCK_RECORD
5
1
100
AcDbSymbolTable
70
1
0
BLOCK_RECORD
5
1F
100
AcDbSymbolTableRecord
100
AcDbBlockTableRecord
2
*MODEL_SPACE
0
BLOCK_RECORD
5
1B
100
AcDbSymbolTableRecord
100
AcDbBlockTableRecord
2
*PAPER_SPACE
0
ENDTAB
0
ENDSEC
0
SECTION
2
BLOCKS
0
BLOCK
5
20
100
AcDbEntity
100
AcDbBlockBegin
2
*MODEL_SPACE
0
ENDBLK
5
21
100
AcDbEntity
100
AcDbBlockEnd
0
BLOCK
5
1C
100
AcDbEntity
100
AcDbBlockBegin
2
*PAPER_SPACE
0
ENDBLK
5
1D
100
AcDbEntity
100
AcDbBlockEnd
0
ENDSEC
0
SECTION
2
ENTITIES
0
LINE
5
100
100
AcDbEntity
8
0
100
AcDbLine
10
0
20
0
30
0
11
70
21
0
31
0
0
LINE
5
101
100
AcDbEntity
8
0
100
AcDbLine
10
70
20
0
30
0
11
70
21
-30
31
0
0
LINE
5
102
100
AcDbEntity
8
0
100
AcDbLine
10
70
20
-30
30
0
11
0
21
-30
31
0
0
LINE
5
103
100
AcDbEntity
8
0
100
AcDbLine
10
0
20
-30
30
0
11
0
21
0
31
0
0
LINE
5
104
100
AcDbEntity
8
0
100
AcDbLine
10
0
20
0
30
0
11
7.3788212749209166
21
20.070393867783423
31
0
0
LINE
5
105
100
AcDbEntity
8
0
100
AcDbLine
10
13.010292595296207
20
24.000000000001812
30
0
11
56.989707404579107
21
24.000000000000007
31
0
0
LINE
5
106
100
AcDbEntity
8
0
100
AcDbLine
10
62.621178725019313
20
20.070393867763691
30
0
11
70
21
0
31
0
0
CIRCLE
5
107
100
AcDbEntity
8
0
100
AcDbCircle
10
15.000000000000204
20
17
30
0
40
3.1000000000000005
210
0
220
0
230
1
0
CIRCLE
5
108
100
AcDbEntity
8
0
100
AcDbCircle
10
55.000000000000014
20
17
30
0
40
3.1000000000000005
210
0
220
0
230
1
0
LINE
5
109
100
AcDbEntity
8
0
100
AcDbLine
10
15.000000000000206
20
17
30
0
11
55.000000000000014
21
17
31
0
0
LINE
5
110
100
AcDbEntity
8
0
100
AcDbLine
10
35.000000000000014
20
17
30
0
11
35
21
-1.3274101770545871e-31
31
0
0
LINE
5
111
100
AcDbEntity
8
0
100
AcDbLine
10
15.000000000000206
20
17
30
0
11
6.2500000000003002
21
17.000000000000227
31
0
0
ARC
5
112
100
AcDbEntity
8
0
100
AcDbCircle
10
13.010292595300459
20
17.999999999999069
30
0
40
6.0000000000027409
210
0
220
0
230
1
100
AcDbArc
50
90.0000000000406
51
159.81419699055527
0
ARC
5
113
100
AcDbEntity
8
0
100
AcDbCircle
10
56.98970740458995
20
17.999999999919844
30
0
40
6.0000000000686535
210
-0
220
0
230
1
100
AcDbArc
50
20.18580300981381
51
90.000000000103554
0
LINE
5
114
100
AcDbEntity
8
0
100
AcDbLine
10
70
20
0
30
0
11
99
21
-1.5271082086361585e-15
31
0
0
LINE
5
115
100
AcDbEntity
8
0
100
AcDbLine
10
103
20
-4.0000000000000044
30
0
11
103
21
-5.9999999999999982
31
0
0
LINE
5
116
100
AcDbEntity
8
0
100
AcDbLine
10
99
20
-10
30
0
11
79.000000349865246
21
-10.000000000000007
31
0
0
LINE
5
117
100
AcDbEntity
8
0
100
AcDbLine
10
75.000000349874412
20
-13.999999999999195
30
0
11
75.000000349829065
21
-15
31
0
0
LINE
5
118
100
AcDbEntity
8
0
100
AcDbLine
10
70
20
-15
30
0
11
103.63872207185005
21
-15.000000000000002
31
0
0
ARC
5
119
100
AcDbEntity
8
0
100
AcDbCircle
10
99
20
-4.0000000000000044
30
0
40
4.0000000000000036
210
-0
220
0
230
1
100
AcDbArc
50
0
51
90
0
ARC
5
120
100
AcDbEntity
8
0
100
AcDbCircle
10
99
20
-5.9999999999999982
30
0
40
4.0000000000000018
210
-0
220
0
230
1
100
AcDbArc
50
-90
51
0
0
ARC
5
121
100
AcDbEntity
8
0
100
AcDbCircle
10
79.000000349869893
20
-13.999999999999178
30
0
40
3.9999999999991709
210
0
220
0
230
1
100
AcDbArc
50
90.000000000066564
51
180
0
LINE
5
122
100
AcDbEntity
8
0
100
AcDbLine
10
70
20
-30.000000000000004
30
0
11
99
21
-30.000000000000004
31
0
0
ARC
5
123
100
AcDbEntity
8
0
100
AcDbCircle
10
99
20
-26
30
0
40
4.0000000000000036
210
-0
220
0
230
1
100
AcDbArc
50
-90
51
0
0
LINE
5
124
100
AcDbEntity
8
0
100
AcDbLine
10
103
20
-25.999999999999996
30
0
11
103
21
-24.000000000000004
31
0
0
ARC
5
125
100
AcDbEntity
8
0
100
AcDbCircle
10
99
20
-24.000000000000004
30
0
40
4.0000000000000036
210
-0
220
0
230
1
100
AcDbArc
50
0
51
90
0
LINE
5
126
100
AcDbEntity
8
0
100
AcDbLine
10
99
20
-20
30
0
11
79.000000349864848
21
-20.000000000000014
31
0
0
ARC
5
127
100
AcDbEntity
8
0
100
AcDbCircle
10
79.000000349864791
20
-16.000000000000824
30
0
40
3.9999999999989022
210
0
220
0
230
1
100
AcDbArc
50
180
51
270.0000000000008
0
LINE
5
128
100
AcDbEntity
8
0
100
AcDbLine
10
75.0000003498659
20
-16.000000000000803
30
0
11
75.000000349816673
21
-15
31
0
0
LINE
5
129
100
AcDbEntity
8
0
100
AcDbLine
10
0
20
-29.999999999999993
30
0
11
7.3788212749215205
21
-50.070393867779615
31
0
0
ARC
5
130
100
AcDbEntity
8
0
100
AcDbCircle
10
13.010292595298907
20
-47.999999999993364
30
0
40
5.9999999999999947
210
0
220
0
230
1
100
AcDbArc
50
200.18580300946883
51
269.99999999996817
0
LINE
5
131
100
AcDbEntity
8
0
100
AcDbLine
10
13.010292595295576
20
-53.999999999999105
30
0
11
56.989707404588621
21
-53.999999999979465
31
0
0
ARC
5
132
100
AcDbEntity
8
0
100
AcDbCircle
10
56.989707404608609
20
-47.999999999919076
30
0
40
6.0000000000603926
210
0
220
0
230
1
100
AcDbArc
50
269.99999999980912
51
339.81419699011627
0
LINE
5
133
100
AcDbEntity
8
0
100
AcDbLine
10
62.621178725028734
20
-50.070393867767329
30
0
11
70
21
-30
31
0
0
CIRCLE
5
134
100
AcDbEntity
8
0
100
AcDbCircle
10
15.000000000000025
20
-46.999999999999986
30
0
40
3.1000000000000005
210
0
220
0
230
1
0
CIRCLE
5
135
100
AcDbEntity
8
0
100
AcDbCircle
10
55.000000000000007
20
-46.999999999999993
30
0
40
3.1000000000000005
210
0
220
0
230
1
0
LINE
5
136
100
AcDbEntity
8
0
100
AcDbLine
10
0
20
4.6629367034256575e-14
30
0
11
-29.000000000000004
21
9.3258734068513149e-14
31
0
0
ARC
5
137
100
AcDbEntity
8
0
100
AcDbCircle
10
-29.000000000000021
20
-3.9999999999999059
30
0
40
3.9999999999999991
210
-0
220
0
230
1
100
AcDbArc
50
89.999999999999744
51
180
0
LINE
5
138
100
AcDbEntity
8
0
100
AcDbLine
10
-24.000000349051355
20
-10.000000000000417
30
0
11
-9.0000003498652621
21
-9.9999999999998952
31
0
0
ARC
5
139
100
AcDbEntity
8
0
100
AcDbCircle
10
-9.0000003498698202
20
-13.999999999998966
30
0
40
3.9999999999953797
210
-0
220
0
230
1
100
AcDbArc
50
0
51
89.999999999934701
0
LINE
5
140
100
AcDbEntity
8
0
100
AcDbLine
10
-5.0000003498744405
20
-13.999999999999114
30
0
11
-5.0000003498291061
21
-14.999999999999922
31
0
0
LINE
5
141
100
AcDbEntity
8
0
100
AcDbLine
10
-6.6874610424479919e-14
20
-29.999999999999915
30
0
11
-29.000000000000071
21
-29.999999999999865
31
0
0
ARC
5
142
100
AcDbEntity
8
0
100
AcDbCircle
10
-29.000000000000064
20
-25.999999999999869
30
0
40
4.0000000000000124
210
0
220
0
230
1
100
AcDbArc
50
180
51
269.99999999999989
0
LINE
5
143
100
AcDbEntity
8
0
100
AcDbLine
10
-33.000000000000078
20
-25.999999999999854
30
0
11
-33.000000000000028
21
-3.9999999999999014
31
0
0
ARC
5
144
100
AcDbEntity
8
0
100
AcDbCircle
10
-9.0000003498651875
20
-16.000000000000728
30
0
40
3.9999999999992175
210
0
220
0
230
1
100
AcDbArc
50
-89.999999999995623
51
0
0
LINE
5
145
100
AcDbEntity
8
0
100
AcDbLine
10
-5.0000003498659664
20
-16.000000000000721
30
0
11
-5.000000349816708
21
-14.999999999999918
31
0
0
LINE
5
146
100
AcDbEntity
8
0
100
AcDbLine
10
-24.000000349050975
20
-20.000000000000433
30
0
11
-9.0000003498648837
21
-19.999999999999943
31
0
0
ARC
5
147
100
AcDbEntity
8
0
100
AcDbCircle
10
-24.00000034905112
20
-15.000000000000504
30
0
40
5.000000000000087
210
0
220
0
230
1
100
AcDbArc
50
90.000000000002686
51
180
0
ARC
5
148
100
AcDbEntity
8
0
100
AcDbCircle
10
-24.000000349051223
20
-15.000000000000444
30
0
40
5.0000000000006217
210
0
220
0
230
1
100
AcDbArc
50
180
51
270.00000000000284
0
ENDSEC
0
SECTION
2
OBJECTS
0
DICTIONARY
5
C
100
AcDbDictionary
3
ACAD_GROUP
350
D
3
ACAD_MLINESTYLE
350
17
0
DICTIONARY
5
D
100
AcDbDictionary
0
DICTIONARY
5
1A
330
C
100
AcDbDictionary
0
DICTIONARY
5
17
100
AcDbDictionary
0
ENDSEC
0
EOF
