0
SECTION
2
HEADER
9
$INSUNITS
70
4
9
$ACADVER
1
AC1014
9
$HANDSEED
5
FFFF
0
ENDSEC
0
SECTION
2
TABLES
0
TABLE
2
VPORT
5
8
100
AcDbSymbolTable
0
ENDTAB
0
TABLE
2
LTYPE
5
5
100
AcDbSymbolTable
0
LTYPE
5
14
100
AcDbSymbolTableRecord
100
AcDbLinetypeTableRecord
2
BYBLOCK
70
0
0
LTYPE
5
15
100
AcDbSymbolTableRecord
100
AcDbLinetypeTableRecord
2
BYLAYER
70
0
0
ENDTAB
0
TABLE
2
LAYER
5
2
100
AcDbSymbolTable
70
2
0
LAYER
5
50
100
AcDbSymbolTableRecord
100
AcDbLayerTableRecord
2
0
70
0
6
CONTINUOUS
0
ENDTAB
0
TABLE
2
STYLE
5
3
100
AcDbSymbolTable
70
1
0
STYLE
5
11
100
AcDbSymbolTableRecord
100
AcDbTextStyleTableRecord
2
STANDARD
70
0
0
ENDTAB
0
TABLE
2
VIEW
5
6
100
AcDbSymbolTable
70
0
0
ENDTAB
0
TABLE
2
UCS
5
7
100
AcDbSymbolTable
70
0
0
ENDTAB
0
TABLE
2
APPID
5
9
100
AcDbSymbolTable
70
2
0
APPID
5
12
100
AcDbSymbolTableRecord
100
AcDbRegAppTableRecord
2
ACAD
70
0
0
ENDTAB
0
TABLE
2
DIMSTYLE
5
A
100
AcDbSymbolTable
70
1
0
ENDTAB
0
TABLE
2
BLOCK_RECORD
5
1
100
AcDbSymbolTable
70
1
0
BLOCK_RECORD
5
1F
100
AcDbSymbolTableRecord
100
AcDbBlockTableRecord
2
*MODEL_SPACE
0
BLOCK_RECORD
5
1B
100
AcDbSymbolTableRecord
100
AcDbBlockTableRecord
2
*PAPER_SPACE
0
ENDTAB
0
ENDSEC
0
SECTION
2
BLOCKS
0
BLOCK
5
20
100
AcDbEntity
100
AcDbBlockBegin
2
*MODEL_SPACE
0
ENDBLK
5
21
100
AcDbEntity
100
AcDbBlockEnd
0
BLOCK
5
1C
100
AcDbEntity
100
AcDbBlockBegin
2
*PAPER_SPACE
0
ENDBLK
5
1D
100
AcDbEntity
100
AcDbBlockEnd
0
ENDSEC
0
SECTION
2
ENTITIES
0
LINE
5
100
100
AcDbEntity
8
0
100
AcDbLine
10
0
20
0
30
0
11
65
21
-2.4651903288156619e-31
31
0
0
LINE
5
101
100
AcDbEntity
8
0
100
AcDbLine
10
65
20
-2.4651903288156619e-31
30
0
11
65
21
-30
31
0
0
LINE
5
102
100
AcDbEntity
8
0
100
AcDbLine
10
65
20
-30
30
0
11
0
21
-30
31
0
0
LINE
5
103
100
AcDbEntity
8
0
100
AcDbLine
10
0
20
-30
30
0
11
0
21
0
31
0
0
LINE
5
104
100
AcDbEntity
8
0
100
AcDbLine
10
0
20
0
30
0
11
5.0171962714233551
21
19.495391226108481
31
0
0
LINE
5
105
100
AcDbEntity
8
0
100
AcDbLine
10
10.827859321445374
20
24.000000000001393
30
0
11
54.172140678444912
21
24.000000000000014
31
0
0
LINE
5
106
100
AcDbEntity
8
0
100
AcDbLine
10
59.982803728517247
20
19.495391226082102
30
0
11
65
21
-2.4651903288156619e-31
31
0
0
CIRCLE
5
107
100
AcDbEntity
8
0
100
AcDbCircle
10
12.499999999998588
20
17
30
0
40
3.1000000000000005
210
0
220
0
230
1
0
CIRCLE
5
108
100
AcDbEntity
8
0
100
AcDbCircle
10
52.499999999999773
20
17
30
0
40
3.1000000000000005
210
0
220
0
230
1
0
LINE
5
109
100
AcDbEntity
8
0
100
AcDbLine
10
12.499999999998588
20
17
30
0
11
52.499999999999773
21
17
31
0
0
LINE
5
110
100
AcDbEntity
8
0
100
AcDbLine
10
32.500000000000014
20
17
30
0
11
32.5
21
0
31
0
0
LINE
5
111
100
AcDbEntity
8
0
100
AcDbLine
10
12.499999999998588
20
17
30
0
11
4.3749999999985878
21
17.000000000000004
31
0
0
ARC
5
112
100
AcDbEntity
8
0
100
AcDbCircle
10
10.827859321444484
20
18.000000000000583
30
0
40
6.0000000000008091
210
0
220
-0
230
1
100
AcDbArc
50
89.999999999991502
51
165.56793706386853
0
ARC
5
113
100
AcDbEntity
8
0
100
AcDbCircle
10
54.172140678427581
20
17.999999999920014
30
0
40
6.0000000000799893
210
-0
220
0
230
1
100
AcDbArc
50
14.432062936469492
51
89.999999999834515
0
LINE
5
114
100
AcDbEntity
8
0
100
AcDbLine
10
65
20
-2.4651903288156619e-31
30
0
11
94
21
-2.8859608833888193e-15
31
0
0
LINE
5
115
100
AcDbEntity
8
0
100
AcDbLine
10
98
20
-4.0000000000000062
30
0
11
98
21
-5.9999999999999822
31
0
0
LINE
5
116
100
AcDbEntity
8
0
100
AcDbLine
10
94
20
-9.999999999999984
30
0
11
73.999999999998934
21
-9.9999999999999805
31
0
0
LINE
5
117
100
AcDbEntity
8
0
100
AcDbLine
10
69.999999999999986
20
-13.999999999999114
30
0
11
69.999999999959584
21
-15.000000000000002
31
0
0
LINE
5
118
100
AcDbEntity
8
0
100
AcDbLine
10
65
20
-15
30
0
11
103.63872207185005
21
-15.000000000000002
31
0
0
ARC
5
119
100
AcDbEntity
8
0
100
AcDbCircle
10
94
20
-4.0000000000000062
30
0
40
4.0000000000000036
210
-0
220
0
230
1
100
AcDbArc
50
0
51
90
0
ARC
5
120
100
AcDbEntity
8
0
100
AcDbCircle
10
94
20
-5.9999999999999822
30
0
40
4.0000000000000018
210
-0
220
0
230
1
100
AcDbArc
50
-90
51
0
0
ARC
5
121
100
AcDbEntity
8
0
100
AcDbCircle
10
73.999999999999204
20
-13.999999999999169
30
0
40
3.9999999999991873
210
0
220
0
230
1
100
AcDbArc
50
90.00000000000388
51
180
0
LINE
5
122
100
AcDbEntity
8
0
100
AcDbLine
10
65
20
-30
30
0
11
94
21
-30
31
0
0
ARC
5
123
100
AcDbEntity
8
0
100
AcDbCircle
10
94
20
-25.999999999999996
30
0
40
4.0000000000000036
210
-0
220
0
230
1
100
AcDbArc
50
270
51
360
0
LINE
5
124
100
AcDbEntity
8
0
100
AcDbLine
10
98
20
-26.000000000000007
30
0
11
98
21
-24.000000000000021
31
0
0
ARC
5
125
100
AcDbEntity
8
0
100
AcDbCircle
10
94
20
-24.000000000000021
30
0
40
4.0000000000000036
210
-0
220
0
230
1
100
AcDbArc
50
0
51
90
0
LINE
5
126
100
AcDbEntity
8
0
100
AcDbLine
10
94
20
-20.000000000000018
30
0
11
73.99999999999892
21
-20.000000000000032
31
0
0
ARC
5
127
100
AcDbEntity
8
0
100
AcDbCircle
10
73.999999999998892
20
-16.000000000000888
30
0
40
3.9999999999989022
210
0
220
0
230
1
100
AcDbArc
50
180
51
270.0000000000004
0
LINE
5
128
100
AcDbEntity
8
0
100
AcDbLine
10
69.999999999999986
20
-16.000000000000895
30
0
11
69.999999999959698
21
-15.000000000000007
31
0
0
LINE
5
129
100
AcDbEntity
8
0
100
AcDbLine
10
0
20
-29.999999999999993
30
0
11
5.0171962714086904
21
-49.495391226108445
31
0
0
ARC
5
130
100
AcDbEntity
8
0
100
AcDbCircle
10
10.827859321429703
20
-48.000000000000554
30
0
40
5.9999999999999956
210
0
220
0
230
1
100
AcDbArc
50
194.43206293613167
51
270.0000000000345
0
LINE
5
131
100
AcDbEntity
8
0
100
AcDbLine
10
10.827859321433319
20
-54.000000000000561
30
0
11
54.172140678452422
21
-53.999999999980453
31
0
0
ARC
5
132
100
AcDbEntity
8
0
100
AcDbCircle
10
54.172140678435127
20
-47.999999999920064
30
0
40
6.0000000000603926
210
0
220
0
230
1
100
AcDbArc
50
270.00000000016513
51
345.56793706349998
0
LINE
5
133
100
AcDbEntity
8
0
100
AcDbLine
10
59.982803728499761
20
-49.495391226079008
30
0
11
65
21
-30
31
0
0
CIRCLE
5
134
100
AcDbEntity
8
0
100
AcDbCircle
10
12.49999999999976
20
-46.999999999999986
30
0
40
3.1000000000000005
210
0
220
0
230
1
0
CIRCLE
5
135
100
AcDbEntity
8
0
100
AcDbCircle
10
52.500000000000753
20
-46.999999999999801
30
0
40
3.1000000000000005
210
0
220
0
230
1
0
LINE
5
136
100
AcDbEntity
8
0
100
AcDbLine
10
0
20
4.6629367034256575e-14
30
0
11
-29.000000000000004
21
9.3258734068513149e-14
31
0
0
ARC
5
137
100
AcDbEntity
8
0
100
AcDbCircle
10
-29.000000000000021
20
-3.9999999999999059
30
0
40
3.9999999999999991
210
-0
220
0
230
1
100
AcDbArc
50
89.999999999999744
51
180
0
LINE
5
138
100
AcDbEntity
8
0
100
AcDbLine
10
-24.000000000000242
20
-10.000000000000417
30
0
11
-8.9999999999989466
21
-9.9999999999998952
31
0
0
ARC
5
139
100
AcDbEntity
8
0
100
AcDbCircle
10
-8.9999999999990745
20
-13.999999999998959
30
0
40
3.9999999999990643
210
-0
220
0
230
1
100
AcDbArc
50
0
51
89.999999999998181
0
LINE
5
140
100
AcDbEntity
8
0
100
AcDbLine
10
-5.0000000000000098
20
-13.999999999999035
30
0
11
-4.9999999999596136
21
-14.999999999999925
31
0
0
LINE
5
141
100
AcDbEntity
8
0
100
AcDbLine
10
-6.6874610424479919e-14
20
-29.999999999999915
30
0
11
-29.000000000000071
21
-29.999999999999865
31
0
0
ARC
5
142
100
AcDbEntity
8
0
100
AcDbCircle
10
-29.000000000000057
20
-25.999999999999865
30
0
40
4.0000000000000124
210
0
220
0
230
1
100
AcDbArc
50
180
51
269.99999999999983
0
LINE
5
143
100
AcDbEntity
8
0
100
AcDbLine
10
-33.000000000000071
20
-26.000000000037055
30
0
11
-33.000000000000028
21
-3.9999999999999014
31
0
0
ARC
5
144
100
AcDbEntity
8
0
100
AcDbCircle
10
-8.9999999999993268
20
-16.000000000000721
30
0
40
3.999999999999222
210
0
220
0
230
1
100
AcDbArc
50
270.00000000000529
51
360
0
LINE
5
145
100
AcDbEntity
8
0
100
AcDbLine
10
-5.0000000000000222
20
-16.000000000000817
30
0
11
-4.9999999999597398
21
-14.999999999999929
31
0
0
LINE
5
146
100
AcDbEntity
8
0
100
AcDbLine
10
-23.999999999999982
20
-20.000000000000433
30
0
11
-8.9999999999989555
21
-19.999999999999943
31
0
0
ARC
5
147
100
AcDbEntity
8
0
100
AcDbCircle
10
-24.000000000000064
20
-15.000000000000504
30
0
40
5.000000000000087
210
0
220
0
230
1
100
AcDbArc
50
90.000000000002032
51
180
0
ARC
5
148
100
AcDbEntity
8
0
100
AcDbCircle
10
-24.00000000000016
20
-15.000000000000437
30
0
40
4.9999999999999956
210
0
220
0
230
1
100
AcDbArc
50
180
51
270.00000000000205
0
ENDSEC
0
SECTION
2
OBJECTS
0
DICTIONARY
5
C
100
AcDbDictionary
3
ACAD_GROUP
350
D
3
ACAD_MLINESTYLE
350
17
0
DICTIONARY
5
D
100
AcDbDictionary
0
DICTIONARY
5
1A
330
C
100
AcDbDictionary
0
DICTIONARY
5
17
100
AcDbDictionary
0
ENDSEC
0
EOF
