0
SECTION
2
HEADER
9
$INSUNITS
70
4
9
$ACADVER
1
AC1014
9
$HANDSEED
5
FFFF
0
ENDSEC
0
SECTION
2
TABLES
0
TABLE
2
VPORT
5
8
100
AcDbSymbolTable
0
ENDTAB
0
TABLE
2
LTYPE
5
5
100
AcDbSymbolTable
0
LTYPE
5
14
100
AcDbSymbolTableRecord
100
AcDbLinetypeTableRecord
2
BYBLOCK
70
0
0
LTYPE
5
15
100
AcDbSymbolTableRecord
100
AcDbLinetypeTableRecord
2
BYLAYER
70
0
0
ENDTAB
0
TABLE
2
LAYER
5
2
100
AcDbSymbolTable
70
2
0
LAYER
5
50
100
AcDbSymbolTableRecord
100
AcDbLayerTableRecord
2
0
70
0
6
CONTINUOUS
0
ENDTAB
0
TABLE
2
STYLE
5
3
100
AcDbSymbolTable
70
1
0
STYLE
5
11
100
AcDbSymbolTableRecord
100
AcDbTextStyleTableRecord
2
STANDARD
70
0
0
ENDTAB
0
TABLE
2
VIEW
5
6
100
AcDbSymbolTable
70
0
0
ENDTAB
0
TABLE
2
UCS
5
7
100
AcDbSymbolTable
70
0
0
ENDTAB
0
TABLE
2
APPID
5
9
100
AcDbSymbolTable
70
2
0
APPID
5
12
100
AcDbSymbolTableRecord
100
AcDbRegAppTableRecord
2
ACAD
70
0
0
ENDTAB
0
TABLE
2
DIMSTYLE
5
A
100
AcDbSymbolTable
70
1
0
ENDTAB
0
TABLE
2
BLOCK_RECORD
5
1
100
AcDbSymbolTable
70
1
0
BLOCK_RECORD
5
1F
100
AcDbSymbolTableRecord
100
AcDbBlockTableRecord
2
*MODEL_SPACE
0
BLOCK_RECORD
5
1B
100
AcDbSymbolTableRecord
100
AcDbBlockTableRecord
2
*PAPER_SPACE
0
ENDTAB
0
ENDSEC
0
SECTION
2
BLOCKS
0
BLOCK
5
20
100
AcDbEntity
100
AcDbBlockBegin
2
*MODEL_SPACE
0
ENDBLK
5
21
100
AcDbEntity
100
AcDbBlockEnd
0
BLOCK
5
1C
100
AcDbEntity
100
AcDbBlockBegin
2
*PAPER_SPACE
0
ENDBLK
5
1D
100
AcDbEntity
100
AcDbBlockEnd
0
ENDSEC
0
SECTION
2
ENTITIES
0
LINE
5
100
100
AcDbEntity
8
0
100
AcDbLine
10
0
20
0
30
0
11
140
21
2.4651903288156619e-31
31
0
0
LINE
5
101
100
AcDbEntity
8
0
100
AcDbLine
10
140
20
2.4651903288156619e-31
30
0
11
140
21
-30
31
0
0
LINE
5
102
100
AcDbEntity
8
0
100
AcDbLine
10
140
20
-30
30
0
11
0
21
-30
31
0
0
LINE
5
103
100
AcDbEntity
8
0
100
AcDbLine
10
0
20
-30
30
0
11
0
21
0
31
0
0
LINE
5
104
100
AcDbEntity
8
0
100
AcDbLine
10
0
20
0
30
0
11
44.575832441042252
21
23.316589276852582
31
0
0
LINE
5
105
100
AcDbEntity
8
0
100
AcDbLine
10
47.356817601243655
20
24.000000000000014
30
0
11
92.643182354236615
21
24.000000000000036
31
0
0
LINE
5
106
100
AcDbEntity
8
0
100
AcDbLine
10
95.424167554028429
20
23.316589267428888
30
0
11
140
21
2.4651903288156619e-31
31
0
0
CIRCLE
5
107
100
AcDbEntity
8
0
100
AcDbCircle
10
50.000000000000043
20
17
30
0
40
3.1000000000000005
210
0
220
0
230
1
0
CIRCLE
5
108
100
AcDbEntity
8
0
100
AcDbCircle
10
90
20
17
30
0
40
3.1000000000000005
210
0
220
0
230
1
0
LINE
5
109
100
AcDbEntity
8
0
100
AcDbLine
10
50.000000000000043
20
17
30
0
11
90
21
17
31
0
0
LINE
5
110
100
AcDbEntity
8
0
100
AcDbLine
10
70.000000000000014
20
16.999999999999996
30
0
11
70
21
1.6434602192104411e-31
31
0
0
LINE
5
111
100
AcDbEntity
8
0
100
AcDbLine
10
50.000000000000043
20
17
30
0
11
32.500000000000043
21
17.000000000000153
31
0
0
ARC
5
112
100
AcDbEntity
8
0
100
AcDbCircle
10
47.356817601243648
20
17.999999999996909
30
0
40
6.0000000000031051
210
0
220
-0
230
1
100
AcDbArc
50
89.999999999999929
51
117.6130278230842
0
ARC
5
113
100
AcDbEntity
8
0
100
AcDbCircle
10
92.643182354210879
20
17.999999912099589
30
0
40
6.0000000879004221
210
-0
220
0
230
1
100
AcDbArc
50
62.386972189029358
51
89.999999999754252
0
LINE
5
114
100
AcDbEntity
8
0
100
AcDbLine
10
140
20
2.4651903288156619e-31
30
0
11
169.00000000000057
21
1.7668578695956224e-13
31
0
0
LINE
5
115
100
AcDbEntity
8
0
100
AcDbLine
10
173.00000000000051
20
-3.9999999999998255
30
0
11
172.99999999999986
21
-5.9999999999999769
31
0
0
LINE
5
116
100
AcDbEntity
8
0
100
AcDbLine
10
168.99999999999983
20
-9.9999999999999787
30
0
11
148.99999999999031
21
-10.000000000000018
31
0
0
LINE
5
117
100
AcDbEntity
8
0
100
AcDbLine
10
145.00000000000256
20
-13.999999999999188
30
0
11
144.9999999999568
21
-15.000000000000002
31
0
0
LINE
5
118
100
AcDbEntity
8
0
100
AcDbLine
10
140
20
-15.000000000000002
30
0
11
103.63872207185005
21
-15.000000000000002
31
0
0
ARC
5
119
100
AcDbEntity
8
0
100
AcDbCircle
10
169.00000000000057
20
-3.9999999999998268
30
0
40
3.9999999999999503
210
-0
220
0
230
1
100
AcDbArc
50
0
51
90
0
ARC
5
120
100
AcDbEntity
8
0
100
AcDbCircle
10
168.99999999999983
20
-5.9999999999999769
30
0
40
4.0000000000000018
210
-0
220
0
230
1
100
AcDbArc
50
-90
51
0
0
ARC
5
121
100
AcDbEntity
8
0
100
AcDbCircle
10
148.99999999999028
20
-13.999999999999186
30
0
40
3.9999999999991687
210
0
220
-0
230
1
100
AcDbArc
50
89.999999999999588
51
180
0
LINE
5
122
100
AcDbEntity
8
0
100
AcDbLine
10
140
20
-30.000000000000039
30
0
11
169.00000000000051
21
-30.000000000000181
31
0
0
ARC
5
123
100
AcDbEntity
8
0
100
AcDbCircle
10
169.00000000000011
20
-26.000000000000398
30
0
40
3.9999999999997859
210
-0
220
0
230
1
100
AcDbArc
50
-89.999999999994301
51
0
0
LINE
5
124
100
AcDbEntity
8
0
100
AcDbLine
10
172.99999999999983
20
-26.000000000000185
30
0
11
172.99999999999983
21
-24.000000000000028
31
0
0
ARC
5
125
100
AcDbEntity
8
0
100
AcDbCircle
10
168.99999999999983
20
-24.000000000000028
30
0
40
3.9999999999999858
210
-0
220
0
230
1
100
AcDbArc
50
0
51
90
0
LINE
5
126
100
AcDbEntity
8
0
100
AcDbLine
10
168.99999999999983
20
-20.000000000000028
30
0
11
148.99999999999341
21
-19.999999999999986
31
0
0
ARC
5
127
100
AcDbEntity
8
0
100
AcDbCircle
10
148.9999999999911
20
-16.00000000000065
30
0
40
3.9999999999951008
210
0
220
0
230
1
100
AcDbArc
50
180
51
270.00000000003297
0
LINE
5
128
100
AcDbEntity
8
0
100
AcDbLine
10
144.99999999999599
20
-16.000000000000817
30
0
11
144.99999999995578
21
-15.000000000000002
31
0
0
LINE
5
129
100
AcDbEntity
8
0
100
AcDbLine
10
-2.8179772693464072e-15
20
-29.999999999999986
30
0
11
44.575832441042245
21
-53.316589276852582
31
0
0
ARC
5
130
100
AcDbEntity
8
0
100
AcDbCircle
10
47.356817601243655
20
-47.999999999996909
30
0
40
6.0000000000031042
210
0
220
0
230
1
100
AcDbArc
50
242.38697217691563
51
269.99999999996203
0
LINE
5
131
100
AcDbEntity
8
0
100
AcDbLine
10
47.356817601239683
20
-54.000000000000014
30
0
11
92.643182354235847
21
-54.00000000000005
31
0
0
ARC
5
132
100
AcDbEntity
8
0
100
AcDbCircle
10
92.643182354202764
20
-48.000000011193798
30
0
40
5.9999999888062483
210
0
220
0
230
1
100
AcDbArc
50
270.00000000031588
51
297.61302824952782
0
LINE
5
133
100
AcDbEntity
8
0
100
AcDbLine
10
95.42416755401544
20
-53.316589267428888
30
0
11
140
21
-30.000000000000004
31
0
0
CIRCLE
5
134
100
AcDbEntity
8
0
100
AcDbCircle
10
50.000000000000036
20
-47.000000000000014
30
0
40
3.1000000000000005
210
0
220
0
230
1
0
CIRCLE
5
135
100
AcDbEntity
8
0
100
AcDbCircle
10
90.000000000000028
20
-47
30
0
40
3.1000000000000005
210
0
220
0
230
1
0
LINE
5
136
100
AcDbEntity
8
0
100
AcDbLine
10
0
20
4.6629367034256575e-14
30
0
11
-29.000000000000004
21
9.3258734068513149e-14
31
0
0
ARC
5
137
100
AcDbEntity
8
0
100
AcDbCircle
10
-29.000000000000021
20
-3.9999999999999059
30
0
40
3.9999999999999991
210
-0
220
0
230
1
100
AcDbArc
50
89.999999999999744
51
180
0
LINE
5
138
100
AcDbEntity
8
0
100
AcDbLine
10
-23.999999999999439
20
-10.000000000011568
30
0
11
-8.9999999999930562
21
-9.9999999999998721
31
0
0
ARC
5
139
100
AcDbEntity
8
0
100
AcDbCircle
10
-8.9999999999869509
20
-13.999999999992891
30
0
40
3.9999999999930118
210
-0
220
0
230
1
100
AcDbArc
50
0
51
90.000000000087454
0
LINE
5
140
100
AcDbEntity
8
0
100
AcDbLine
10
-4.9999999999939391
20
-13.999999999999062
30
0
11
-4.9999999999483205
21
-14.999999999999909
31
0
0
LINE
5
141
100
AcDbEntity
8
0
100
AcDbLine
10
-6.6874610424479919e-14
20
-29.999999999999915
30
0
11
-29.000000000000071
21
-29.999999999999865
31
0
0
ARC
5
142
100
AcDbEntity
8
0
100
AcDbCircle
10
-29.000000000000064
20
-25.999999999999869
30
0
40
4.0000000000000124
210
0
220
0
230
1
100
AcDbArc
50
180
51
269.99999999999989
0
LINE
5
143
100
AcDbEntity
8
0
100
AcDbLine
10
-33.000000000000078
20
-25.999999999999854
30
0
11
-33.000000000000028
21
-3.9999999999999014
31
0
0
ARC
5
144
100
AcDbEntity
8
0
100
AcDbCircle
10
-8.999999999997236
20
-16.000000000000728
30
0
40
3.9999999999991798
210
0
220
0
230
1
100
AcDbArc
50
270.00000000000591
51
360
0
LINE
5
145
100
AcDbEntity
8
0
100
AcDbLine
10
-4.9999999999980176
20
-16.000000000000746
30
0
11
-4.9999999999544853
21
-14.999999999999908
31
0
0
LINE
5
146
100
AcDbEntity
8
0
100
AcDbLine
10
-23.999999999999424
20
-20.000000000011514
30
0
11
-8.9999999999968257
21
-19.999999999999908
31
0
0
ARC
5
147
100
AcDbEntity
8
0
100
AcDbCircle
10
-23.999999999995122
20
-15.000000000016504
30
0
40
5.0000000000049365
210
0
220
0
230
1
100
AcDbArc
50
90.000000000049468
51
180
0
ARC
5
148
100
AcDbEntity
8
0
100
AcDbCircle
10
-24.00000000000373
20
-15.000000000015227
30
0
40
4.9999999999963318
210
0
220
0
230
1
100
AcDbArc
50
180
51
270.00000000004934
0
ENDSEC
0
SECTION
2
OBJECTS
0
DICTIONARY
5
C
100
AcDbDictionary
3
ACAD_GROUP
350
D
3
ACAD_MLINESTYLE
350
17
0
DICTIONARY
5
D
100
AcDbDictionary
0
DICTIONARY
5
1A
330
C
100
AcDbDictionary
0
DICTIONARY
5
17
100
AcDbDictionary
0
ENDSEC
0
EOF
