0
SECTION
2
HEADER
9
$INSUNITS
70
4
9
$ACADVER
1
AC1014
9
$HANDSEED
5
FFFF
0
ENDSEC
0
SECTION
2
TABLES
0
TABLE
2
VPORT
5
8
100
AcDbSymbolTable
0
ENDTAB
0
TABLE
2
LTYPE
5
5
100
AcDbSymbolTable
0
LTYPE
5
14
100
AcDbSymbolTableRecord
100
AcDbLinetypeTableRecord
2
BYBLOCK
70
0
0
LTYPE
5
15
100
AcDbSymbolTableRecord
100
AcDbLinetypeTableRecord
2
BYLAYER
70
0
0
ENDTAB
0
TABLE
2
LAYER
5
2
100
AcDbSymbolTable
70
2
0
LAYER
5
50
100
AcDbSymbolTableRecord
100
AcDbLayerTableRecord
2
0
70
0
6
CONTINUOUS
0
ENDTAB
0
TABLE
2
STYLE
5
3
100
AcDbSymbolTable
70
1
0
STYLE
5
11
100
AcDbSymbolTableRecord
100
AcDbTextStyleTableRecord
2
STANDARD
70
0
0
ENDTAB
0
TABLE
2
VIEW
5
6
100
AcDbSymbolTable
70
0
0
ENDTAB
0
TABLE
2
UCS
5
7
100
AcDbSymbolTable
70
0
0
ENDTAB
0
TABLE
2
APPID
5
9
100
AcDbSymbolTable
70
2
0
APPID
5
12
100
AcDbSymbolTableRecord
100
AcDbRegAppTableRecord
2
ACAD
70
0
0
ENDTAB
0
TABLE
2
DIMSTYLE
5
A
100
AcDbSymbolTable
70
1
0
ENDTAB
0
TABLE
2
BLOCK_RECORD
5
1
100
AcDbSymbolTable
70
1
0
BLOCK_RECORD
5
1F
100
AcDbSymbolTableRecord
100
AcDbBlockTableRecord
2
*MODEL_SPACE
0
BLOCK_RECORD
5
1B
100
AcDbSymbolTableRecord
100
AcDbBlockTableRecord
2
*PAPER_SPACE
0
ENDTAB
0
ENDSEC
0
SECTION
2
BLOCKS
0
BLOCK
5
20
100
AcDbEntity
100
AcDbBlockBegin
2
*MODEL_SPACE
0
ENDBLK
5
21
100
AcDbEntity
100
AcDbBlockEnd
0
BLOCK
5
1C
100
AcDbEntity
100
AcDbBlockBegin
2
*PAPER_SPACE
0
ENDBLK
5
1D
100
AcDbEntity
100
AcDbBlockEnd
0
ENDSEC
0
SECTION
2
ENTITIES
0
LINE
5
100
100
AcDbEntity
8
0
100
AcDbLine
10
0
20
0
30
0
11
80.000000441832299
21
3.8144931669218263e-14
31
0
0
LINE
5
101
100
AcDbEntity
8
0
100
AcDbLine
10
80.000000441832299
20
3.8144931669218263e-14
30
0
11
80
21
-30
31
0
0
LINE
5
102
100
AcDbEntity
8
0
100
AcDbLine
10
80
20
-30
30
0
11
0
21
-30
31
0
0
LINE
5
103
100
AcDbEntity
8
0
100
AcDbLine
10
0
20
-30
30
0
11
0
21
0
31
0
0
LINE
5
104
100
AcDbEntity
8
0
100
AcDbLine
10
-2.6924662721583559e-07
20
1.58380366599431e-07
30
0
11
12.377717731339523
21
21.042120759378978
31
0
0
LINE
5
105
100
AcDbEntity
8
0
100
AcDbLine
10
17.549323022288633
20
24.000000000000004
30
0
11
62.450677186167518
21
24.000000000000014
31
0
0
LINE
5
106
100
AcDbEntity
8
0
100
AcDbLine
10
67.622282561268094
20
21.042120789620462
30
0
11
80.000000441832299
21
3.8144931669218263e-14
31
0
0
CIRCLE
5
107
100
AcDbEntity
8
0
100
AcDbCircle
10
19.99999999999887
20
17
30
0
40
3.1000000000000005
210
0
220
0
230
1
0
CIRCLE
5
108
100
AcDbEntity
8
0
100
AcDbCircle
10
60.000000000000007
20
17
30
0
40
3.1000000000000005
210
0
220
0
230
1
0
LINE
5
109
100
AcDbEntity
8
0
100
AcDbLine
10
19.99999999999887
20
17
30
0
11
60.000000000000007
21
17
31
0
0
LINE
5
110
100
AcDbEntity
8
0
100
AcDbLine
10
40.000000000000014
20
17
30
0
11
40
21
0
31
0
0
LINE
5
111
100
AcDbEntity
8
0
100
AcDbLine
10
19.99999999999887
20
17
30
0
11
9.9999999999988702
21
17.000000000000256
31
0
0
ARC
5
112
100
AcDbEntity
8
0
100
AcDbCircle
10
17.549323022288512
20
17.999999999997264
30
0
40
6.0000000000027391
210
0
220
-0
230
1
100
AcDbArc
50
89.999999999998863
51
149.53445508054048
0
ARC
5
113
100
AcDbEntity
8
0
100
AcDbCircle
10
62.450677186169742
20
17.999999999931259
30
0
40
6.0000000879004523
210
-0
220
0
230
1
100
AcDbArc
50
30.465544761491614
51
90.000000000021245
0
LINE
5
114
100
AcDbEntity
8
0
100
AcDbLine
10
80.000000441832299
20
3.8144931669218263e-14
30
0
11
108.99999999999999
21
3.8144931669218263e-14
31
0
0
LINE
5
115
100
AcDbEntity
8
0
100
AcDbLine
10
112.99999999999999
20
-3.999999999999976
30
0
11
113
21
-5.9999999999999876
31
0
0
LINE
5
116
100
AcDbEntity
8
0
100
AcDbLine
10
109
20
-9.9999999999999893
30
0
11
88.999999999996916
21
-10.000000000000004
31
0
0
LINE
5
117
100
AcDbEntity
8
0
100
AcDbLine
10
85.000000000006878
20
-13.999999999999172
30
0
11
84.999999999961375
21
-15.000000000000002
31
0
0
LINE
5
118
100
AcDbEntity
8
0
100
AcDbLine
10
80
20
-15
30
0
11
103.63872207185005
21
-15.000000000000002
31
0
0
ARC
5
119
100
AcDbEntity
8
0
100
AcDbCircle
10
108.99999999999999
20
-3.9999999999999747
30
0
40
4.0000000000000036
210
-0
220
0
230
1
100
AcDbArc
50
0
51
90
0
ARC
5
120
100
AcDbEntity
8
0
100
AcDbCircle
10
109
20
-5.9999999999999876
30
0
40
4.0000000000000018
210
-0
220
0
230
1
100
AcDbArc
50
-90
51
0
0
ARC
5
121
100
AcDbEntity
8
0
100
AcDbCircle
10
88.999999999996902
20
-13.999999999999176
30
0
40
3.9999999999991709
210
0
220
-0
230
1
100
AcDbArc
50
89.999999999999801
51
180
0
LINE
5
122
100
AcDbEntity
8
0
100
AcDbLine
10
80
20
-30.000000000000014
30
0
11
108.99999999999999
21
-30.000000000000043
31
0
0
ARC
5
123
100
AcDbEntity
8
0
100
AcDbCircle
10
108.99999999999999
20
-26.000000000000032
30
0
40
4.0000000000000124
210
-0
220
0
230
1
100
AcDbArc
50
-90
51
0
0
LINE
5
124
100
AcDbEntity
8
0
100
AcDbLine
10
113
20
-26.000000000000032
30
0
11
113
21
-24.000000000000021
31
0
0
ARC
5
125
100
AcDbEntity
8
0
100
AcDbCircle
10
109
20
-24.000000000000021
30
0
40
4.0000000000000036
210
-0
220
0
230
1
100
AcDbArc
50
0
51
90
0
LINE
5
126
100
AcDbEntity
8
0
100
AcDbLine
10
109
20
-20.000000000000018
30
0
11
88.999999999996788
21
-19.999999999999996
31
0
0
ARC
5
127
100
AcDbEntity
8
0
100
AcDbCircle
10
88.999999999996902
20
-16.000000000001108
30
0
40
3.99999999999892
210
0
220
0
230
1
100
AcDbArc
50
180
51
269.99999999999835
0
LINE
5
128
100
AcDbEntity
8
0
100
AcDbLine
10
84.999999999997982
20
-16.000000000000831
30
0
11
84.999999999954454
21
-15.000000000000002
31
0
0
LINE
5
129
100
AcDbEntity
8
0
100
AcDbLine
10
-2.692455680630701e-07
20
-30.000000158379731
30
0
11
12.377717731343738
21
-51.042120759378975
31
0
0
ARC
5
130
100
AcDbEntity
8
0
100
AcDbCircle
10
17.549323022289531
20
-47.999999999996604
30
0
40
6.0000000000003064
210
0
220
0
230
1
100
AcDbArc
50
210.46554491948038
51
269.99999999999164
0
LINE
5
131
100
AcDbEntity
8
0
100
AcDbLine
10
17.549323022288657
20
-53.999999999999993
30
0
11
62.450677186167518
21
-54
31
0
0
ARC
5
132
100
AcDbEntity
8
0
100
AcDbCircle
10
62.450677186173081
20
-47.999999999939611
30
0
40
6.0000000000603926
210
0
220
0
230
1
100
AcDbArc
50
269.99999999994685
51
329.53445523855345
0
LINE
5
133
100
AcDbEntity
8
0
100
AcDbLine
10
67.622282561266545
20
-51.042120789620462
30
0
11
80.000000441764328
21
-30.000000259861363
31
0
0
CIRCLE
5
134
100
AcDbEntity
8
0
100
AcDbCircle
10
20.000000000000004
20
-46.999999999999993
30
0
40
3.1000000000000005
210
0
220
0
230
1
0
CIRCLE
5
135
100
AcDbEntity
8
0
100
AcDbCircle
10
60
20
-47
30
0
40
3.1000000000000005
210
0
220
0
230
1
0
LINE
5
136
100
AcDbEntity
8
0
100
AcDbLine
10
0
20
4.6629367034256575e-14
30
0
11
-29.000000000000004
21
9.3258734068513149e-14
31
0
0
ARC
5
137
100
AcDbEntity
8
0
100
AcDbCircle
10
-29.000000000000021
20
-3.9999999999999059
30
0
40
3.9999999999999991
210
-0
220
0
230
1
100
AcDbArc
50
89.999999999999744
51
180
0
LINE
5
138
100
AcDbEntity
8
0
100
AcDbLine
10
-24.000000000001975
20
-9.9999999999993374
30
0
11
-8.9999999999969429
21
-9.9999999999999005
31
0
0
ARC
5
139
100
AcDbEntity
8
0
100
AcDbCircle
10
-8.9999999999999218
20
-13.999999999995349
30
0
40
3.9999999999930127
210
-0
220
0
230
1
100
AcDbArc
50
0
51
89.999999999957339
0
LINE
5
140
100
AcDbEntity
8
0
100
AcDbLine
10
-5.0000000000069091
20
-13.99999999999908
30
0
11
-4.9999999999614309
21
-14.999999999999918
31
0
0
LINE
5
141
100
AcDbEntity
8
0
100
AcDbLine
10
-6.6874610424479919e-14
20
-29.999999999999915
30
0
11
-29.000000000000071
21
-29.999999999999865
31
0
0
ARC
5
142
100
AcDbEntity
8
0
100
AcDbCircle
10
-29.000000000000064
20
-25.999999999999869
30
0
40
4.0000000000000124
210
0
220
0
230
1
100
AcDbArc
50
180
51
269.99999999999989
0
LINE
5
143
100
AcDbEntity
8
0
100
AcDbLine
10
-33.000000000000078
20
-25.999999999999854
30
0
11
-33.000000000000028
21
-3.9999999999999014
31
0
0
ARC
5
144
100
AcDbEntity
8
0
100
AcDbCircle
10
-8.999999999997236
20
-16.000000000000728
30
0
40
3.9999999999991798
210
0
220
0
230
1
100
AcDbArc
50
270.00000000000591
51
360
0
LINE
5
145
100
AcDbEntity
8
0
100
AcDbLine
10
-4.9999999999980176
20
-16.000000000000746
30
0
11
-4.9999999999544853
21
-14.999999999999908
31
0
0
LINE
5
146
100
AcDbEntity
8
0
100
AcDbLine
10
-24.000000000001862
20
-19.999999999999318
30
0
11
-8.9999999999968257
21
-19.999999999999908
31
0
0
ARC
5
147
100
AcDbEntity
8
0
100
AcDbCircle
10
-24.000000000002096
20
-14.99999999999892
30
0
40
4.9999999999995834
210
0
220
-0
230
1
100
AcDbArc
50
89.999999999998607
51
180
0
ARC
5
148
100
AcDbEntity
8
0
100
AcDbCircle
10
-24.000000000001588
20
-14.999999999998689
30
0
40
5.0000000000005906
210
0
220
0
230
1
100
AcDbArc
50
180
51
269.99999999999682
0
ENDSEC
0
SECTION
2
OBJECTS
0
DICTIONARY
5
C
100
AcDbDictionary
3
ACAD_GROUP
350
D
3
ACAD_MLINESTYLE
350
17
0
DICTIONARY
5
D
100
AcDbDictionary
0
DICTIONARY
5
1A
330
C
100
AcDbDictionary
0
DICTIONARY
5
17
100
AcDbDictionary
0
ENDSEC
0
EOF
