0
SECTION
2
HEADER
9
$INSUNITS
70
4
9
$ACADVER
1
AC1014
9
$HANDSEED
5
FFFF
0
ENDSEC
0
SECTION
2
TABLES
0
TABLE
2
VPORT
5
8
100
AcDbSymbolTable
0
ENDTAB
0
TABLE
2
LTYPE
5
5
100
AcDbSymbolTable
0
LTYPE
5
14
100
AcDbSymbolTableRecord
100
AcDbLinetypeTableRecord
2
BYBLOCK
70
0
0
LTYPE
5
15
100
AcDbSymbolTableRecord
100
AcDbLinetypeTableRecord
2
BYLAYER
70
0
0
ENDTAB
0
TABLE
2
LAYER
5
2
100
AcDbSymbolTable
70
2
0
LAYER
5
50
100
AcDbSymbolTableRecord
100
AcDbLayerTableRecord
2
0
70
0
6
CONTINUOUS
0
ENDTAB
0
TABLE
2
STYLE
5
3
100
AcDbSymbolTable
70
1
0
STYLE
5
11
100
AcDbSymbolTableRecord
100
AcDbTextStyleTableRecord
2
STANDARD
70
0
0
ENDTAB
0
TABLE
2
VIEW
5
6
100
AcDbSymbolTable
70
0
0
ENDTAB
0
TABLE
2
UCS
5
7
100
AcDbSymbolTable
70
0
0
ENDTAB
0
TABLE
2
APPID
5
9
100
AcDbSymbolTable
70
2
0
APPID
5
12
100
AcDbSymbolTableRecord
100
AcDbRegAppTableRecord
2
ACAD
70
0
0
ENDTAB
0
TABLE
2
DIMSTYLE
5
A
100
AcDbSymbolTable
70
1
0
ENDTAB
0
TABLE
2
BLOCK_RECORD
5
1
100
AcDbSymbolTable
70
1
0
BLOCK_RECORD
5
1F
100
AcDbSymbolTableRecord
100
AcDbBlockTableRecord
2
*MODEL_SPACE
0
BLOCK_RECORD
5
1B
100
AcDbSymbolTableRecord
100
AcDbBlockTableRecord
2
*PAPER_SPACE
0
ENDTAB
0
ENDSEC
0
SECTION
2
BLOCKS
0
BLOCK
5
20
100
AcDbEntity
100
AcDbBlockBegin
2
*MODEL_SPACE
0
ENDBLK
5
21
100
AcDbEntity
100
AcDbBlockEnd
0
BLOCK
5
1C
100
AcDbEntity
100
AcDbBlockBegin
2
*PAPER_SPACE
0
ENDBLK
5
1D
100
AcDbEntity
100
AcDbBlockEnd
0
ENDSEC
0
SECTION
2
ENTITIES
0
LINE
5
100
100
AcDbEntity
8
0
100
AcDbLine
10
0
20
0
30
0
11
105
21
2.4651903288156619e-31
31
0
0
LINE
5
101
100
AcDbEntity
8
0
100
AcDbLine
10
105
20
2.4651903288156619e-31
30
0
11
105
21
-30
31
0
0
LINE
5
102
100
AcDbEntity
8
0
100
AcDbLine
10
105
20
-30
30
0
11
0
21
-30
31
0
0
LINE
5
103
100
AcDbEntity
8
0
100
AcDbLine
10
0
20
-30
30
0
11
0
21
0
31
0
0
LINE
5
104
100
AcDbEntity
8
0
100
AcDbLine
10
0
20
0
30
0
11
25.654834705738256
21
22.510048516002989
31
0
0
LINE
5
105
100
AcDbEntity
8
0
100
AcDbLine
10
29.612038564943273
20
24.000000000000004
30
0
11
75.387961363817183
21
23.999999999999954
31
0
0
LINE
5
106
100
AcDbEntity
8
0
100
AcDbLine
10
79.345165277669395
20
22.510048497092598
30
0
11
105
21
2.4651903288156619e-31
31
0
0
CIRCLE
5
107
100
AcDbEntity
8
0
100
AcDbCircle
10
32.500000000000071
20
17
30
0
40
3.1000000000000005
210
0
220
0
230
1
0
CIRCLE
5
108
100
AcDbEntity
8
0
100
AcDbCircle
10
72.500000000000028
20
17
30
0
40
3.1000000000000005
210
0
220
0
230
1
0
LINE
5
109
100
AcDbEntity
8
0
100
AcDbLine
10
32.500000000000071
20
17
30
0
11
72.500000000000028
21
17
31
0
0
LINE
5
110
100
AcDbEntity
8
0
100
AcDbLine
10
52.500000000000014
20
17
30
0
11
52.5
21
0
31
0
0
LINE
5
111
100
AcDbEntity
8
0
100
AcDbLine
10
32.500000000000071
20
17
30
0
11
19.375000000000075
21
17.000000000000103
31
0
0
ARC
5
112
100
AcDbEntity
8
0
100
AcDbCircle
10
29.612038564943344
20
17.999999999996902
30
0
40
6.0000000000031033
210
0
220
0
230
1
100
AcDbArc
50
90.000000000000696
51
131.26434087338052
0
ARC
5
113
100
AcDbEntity
8
0
100
AcDbCircle
10
75.387961363817183
20
17.999999912099511
30
0
40
6.0000000879004487
210
-0
220
0
230
1
100
AcDbArc
50
48.735659168850361
51
90
0
LINE
5
114
100
AcDbEntity
8
0
100
AcDbLine
10
105
20
2.4651903288156619e-31
30
0
11
134.00000000000009
21
-1.5521653673487529e-13
31
0
0
LINE
5
115
100
AcDbEntity
8
0
100
AcDbLine
10
138.00000000000011
20
-4.0000000000002078
30
0
11
138.00000000000006
21
-5.9999999999999796
31
0
0
LINE
5
116
100
AcDbEntity
8
0
100
AcDbLine
10
134.00000000000003
20
-9.9999999999999805
30
0
11
113.99999999999302
21
-9.9999999999999982
31
0
0
LINE
5
117
100
AcDbEntity
8
0
100
AcDbLine
10
110.00000000000001
20
-13.99999999999917
30
0
11
109.99999999995426
21
-15.000000000000002
31
0
0
LINE
5
118
100
AcDbEntity
8
0
100
AcDbLine
10
105
20
-15.000000000000002
30
0
11
103.63872207185005
21
-15.000000000000002
31
0
0
ARC
5
119
100
AcDbEntity
8
0
100
AcDbCircle
10
134.00000000000011
20
-4.0000000000001474
30
0
40
4.0000000000000036
210
-0
220
0
230
1
100
AcDbArc
50
0
51
90.000000000000398
0
ARC
5
120
100
AcDbEntity
8
0
100
AcDbCircle
10
134.00000000000003
20
-5.9999999999999796
30
0
40
4.0000000000000018
210
-0
220
0
230
1
100
AcDbArc
50
-90
51
0
0
ARC
5
121
100
AcDbEntity
8
0
100
AcDbCircle
10
113.99999999999302
20
-13.99999999999917
30
0
40
3.9999999999991722
210
0
220
-0
230
1
100
AcDbArc
50
90
51
180
0
LINE
5
122
100
AcDbEntity
8
0
100
AcDbLine
10
105
20
-30.000000000000018
30
0
11
134.00000000000011
21
-29.999999999999858
31
0
0
ARC
5
123
100
AcDbEntity
8
0
100
AcDbCircle
10
134
20
-26.000000000000082
30
0
40
3.9999999999997771
210
-0
220
0
230
1
100
AcDbArc
50
-89.99999999999838
51
0
0
LINE
5
124
100
AcDbEntity
8
0
100
AcDbLine
10
138.00000000000014
20
-25.999999999999805
30
0
11
138.00000000000006
21
-24.000000000000036
31
0
0
ARC
5
125
100
AcDbEntity
8
0
100
AcDbCircle
10
134.00000000000003
20
-24.000000000000036
30
0
40
4.0000000000000036
210
-0
220
0
230
1
100
AcDbArc
50
0
51
90
0
LINE
5
126
100
AcDbEntity
8
0
100
AcDbLine
10
134.00000000000003
20
-20.000000000000032
30
0
11
113.99999999999301
21
-20.000000000000007
31
0
0
ARC
5
127
100
AcDbEntity
8
0
100
AcDbCircle
10
113.99999999999881
20
-16.000000000000828
30
0
40
3.9999999999988489
210
0
220
0
230
1
100
AcDbArc
50
180
51
269.99999999991695
0
LINE
5
128
100
AcDbEntity
8
0
100
AcDbLine
10
109.99999999999997
20
-16.000000000000835
30
0
11
109.99999999995427
21
-15.000000000000002
31
0
0
LINE
5
129
100
AcDbEntity
8
0
100
AcDbLine
10
-2.8179772693464072e-15
20
-29.999999999999986
30
0
11
25.654834705740335
21
-52.510048516002954
31
0
0
ARC
5
130
100
AcDbEntity
8
0
100
AcDbCircle
10
29.61203856494167
20
-47.999999999997186
30
0
40
6.0000000000003144
210
0
220
0
230
1
100
AcDbArc
50
228.73565912664441
51
270.00000000000966
0
LINE
5
131
100
AcDbEntity
8
0
100
AcDbLine
10
29.612038564942686
20
-53.999999999999986
30
0
11
75.387961363817169
21
-53.99999999999995
31
0
0
ARC
5
132
100
AcDbEntity
8
0
100
AcDbCircle
10
75.387961363817226
20
-47.99999999993954
30
0
40
6.0000000000604103
210
0
220
0
230
1
100
AcDbArc
50
269.99999999999943
51
311.26434138437327
0
LINE
5
133
100
AcDbEntity
8
0
100
AcDbLine
10
79.345165277669366
20
-52.510048497092583
30
0
11
105
21
-30.000000000000004
31
0
0
CIRCLE
5
134
100
AcDbEntity
8
0
100
AcDbCircle
10
32.500000000000057
20
-46.999999999999986
30
0
40
3.1000000000000005
210
0
220
0
230
1
0
CIRCLE
5
135
100
AcDbEntity
8
0
100
AcDbCircle
10
72.500000000000057
20
-46.999999999999972
30
0
40
3.1000000000000005
210
0
220
0
230
1
0
LINE
5
136
100
AcDbEntity
8
0
100
AcDbLine
10
0
20
4.6629367034256575e-14
30
0
11
-29.000000000000004
21
9.3258734068513149e-14
31
0
0
ARC
5
137
100
AcDbEntity
8
0
100
AcDbCircle
10
-29.000000000000021
20
-3.9999999999999059
30
0
40
3.9999999999999991
210
-0
220
0
230
1
100
AcDbArc
50
89.999999999999744
51
180
0
LINE
5
138
100
AcDbEntity
8
0
100
AcDbLine
10
-23.999999999999439
20
-10.000000000011568
30
0
11
-8.9999999999930562
21
-9.9999999999998721
31
0
0
ARC
5
139
100
AcDbEntity
8
0
100
AcDbCircle
10
-8.9999999999869509
20
-13.999999999992891
30
0
40
3.9999999999930118
210
-0
220
0
230
1
100
AcDbArc
50
0
51
90.000000000087454
0
LINE
5
140
100
AcDbEntity
8
0
100
AcDbLine
10
-4.9999999999939391
20
-13.999999999999062
30
0
11
-4.9999999999483205
21
-14.999999999999909
31
0
0
LINE
5
141
100
AcDbEntity
8
0
100
AcDbLine
10
-6.6874610424479919e-14
20
-29.999999999999915
30
0
11
-29.000000000000071
21
-29.999999999999865
31
0
0
ARC
5
142
100
AcDbEntity
8
0
100
AcDbCircle
10
-29.000000000000064
20
-25.999999999999869
30
0
40
4.0000000000000124
210
0
220
0
230
1
100
AcDbArc
50
180
51
269.99999999999989
0
LINE
5
143
100
AcDbEntity
8
0
100
AcDbLine
10
-33.000000000000078
20
-25.999999999999854
30
0
11
-33.000000000000028
21
-3.9999999999999014
31
0
0
ARC
5
144
100
AcDbEntity
8
0
100
AcDbCircle
10
-8.999999999997236
20
-16.000000000000728
30
0
40
3.9999999999991798
210
0
220
0
230
1
100
AcDbArc
50
270.00000000000591
51
360
0
LINE
5
145
100
AcDbEntity
8
0
100
AcDbLine
10
-4.9999999999980176
20
-16.000000000000746
30
0
11
-4.9999999999544853
21
-14.999999999999908
31
0
0
LINE
5
146
100
AcDbEntity
8
0
100
AcDbLine
10
-23.999999999999424
20
-20.000000000011514
30
0
11
-8.9999999999968257
21
-19.999999999999908
31
0
0
ARC
5
147
100
AcDbEntity
8
0
100
AcDbCircle
10
-23.999999999995122
20
-15.000000000016504
30
0
40
5.0000000000049365
210
0
220
0
230
1
100
AcDbArc
50
90.000000000049468
51
180
0
ARC
5
148
100
AcDbEntity
8
0
100
AcDbCircle
10
-24.00000000000373
20
-15.000000000015227
30
0
40
4.9999999999963318
210
0
220
0
230
1
100
AcDbArc
50
180
51
270.00000000004934
0
ENDSEC
0
SECTION
2
OBJECTS
0
DICTIONARY
5
C
100
AcDbDictionary
3
ACAD_GROUP
350
D
3
ACAD_MLINESTYLE
350
17
0
DICTIONARY
5
D
100
AcDbDictionary
0
DICTIONARY
5
1A
330
C
100
AcDbDictionary
0
DICTIONARY
5
17
100
AcDbDictionary
0
ENDSEC
0
EOF
